#!OML:ASF I:\Actors\actors\Patient Classification 2\Patient 1\Session 1\actor1.ASF
:FULLY-SPECIFIED
:DEGREES
248
root -1.91899 18.0478 3.3545 17.8539 -30.0695 -4.25136
lowerback 28.9253 -2.38264 -3.22913
upperback 6.97853 -4.46135 -3.18269
thorax -8.1048 -2.14112 -0.136318
lowerneck -15.2657 9.71156 12.153
upperneck 18.9806 12.486 -9.70081
head 9.9493 5.65595 -3.62481
rclavicle 4.92986e-014 -1.59028e-015
rhumerus -37.7953 38.0984 -93.749
rradius 97.7318
rwrist -18.4202
rhand -13.3345 -72.408
rfingers 7.12502
rthumb 12.7707 -258.003
lclavicle 4.92986e-014 -1.59028e-015
lhumerus 16.3122 4.19505 80.0167
lradius 65.4829
lwrist 82.5288
lhand -42.2763 -8.01615
lfingers 7.12502
lthumb -15.1613 21.4084
rfemur -3.55412 15.4357 19.2404
rtibia -29.7303
rfoot 13.6938 -12.3555
rtoes 1.92721
lfemur 6.96948 18.4388 -10.3647
ltibia -25.5351
lfoot 4.20668 25.6757
ltoes -16.5965
249
root -1.90881 18.04 3.3424 17.9644 -30.0933 -4.2931
lowerback 28.8647 -2.34138 -3.12595
upperback 6.93254 -4.37554 -3.1563
thorax -8.13383 -2.10119 -0.1966
lowerneck -15.1767 9.70429 12.1628
upperneck 19.1068 12.5151 -9.80084
head 9.98925 5.66034 -3.66088
rclavicle 2.70347e-014 -3.49861e-014
rhumerus -37.0249 38.663 -93.561
rradius 98.4691
rwrist -18.2451
rhand -16.5975 -70.465
rfingers 7.12502
rthumb 9.62369 -259.775
lclavicle 2.70347e-014 -3.49861e-014
lhumerus 16.9466 3.86889 79.1267
lradius 65.4962
lwrist 82.2617
lhand -43.0039 -9.30692
lfingers 7.12502
lthumb -15.8621 20.0634
rfemur -3.6431 15.4233 19.2275
rtibia -29.8912
rfoot 13.8575 -12.4113
rtoes 1.84383
lfemur 7.06292 18.7735 -10.4157
ltibia -26.0626
lfoot 4.66972 25.5054
ltoes -16.8749
250
root -1.89932 18.0369 3.34226 17.9962 -30.0941 -4.27773
lowerback 28.6663 -2.28359 -2.92594
upperback 6.89335 -4.23776 -3.15834
thorax -8.09753 -2.04028 -0.367119
lowerneck -15.0352 9.64209 12.2155
upperneck 19.2904 12.479 -9.94957
head 10.0385 5.63371 -3.73438
rclavicle -6.04305e-014 -6.36111e-015
rhumerus -36.7707 39.4751 -92.9365
rradius 99.3894
rwrist -18.4396
rhand -15.9329 -71.474
rfingers 7.12502
rthumb 10.2649 -258.797
lclavicle -6.04305e-014 -6.36111e-015
lhumerus 16.521 2.60292 77.8911
lradius 66.5306
lwrist 82.863
lhand -43.314 -10.8049
lfingers 7.12502
lthumb -16.1608 18.5414
rfemur -3.67131 15.4115 19.1639
rtibia -29.9601
rfoot 13.8915 -12.4652
rtoes 1.82264
lfemur 7.1504 19.0366 -10.5132
ltibia -26.4024
lfoot 4.95948 25.3236
ltoes -17.0307
251
root -1.88946 18.0387 3.35349 17.9161 -30.0071 -4.20367
lowerback 28.4303 -2.24971 -2.6605
upperback 6.85522 -4.11004 -3.15793
thorax -8.04465 -1.98515 -0.569836
lowerneck -15.0078 9.54881 12.109
upperneck 19.6442 12.399 -9.92714
head 10.1402 5.58673 -3.72678
rclavicle 3.65764e-014 -1.90833e-014
rhumerus -37.0973 40.3345 -92.2161
rradius 100.33
rwrist -18.9888
rhand -15.9741 -71.0657
rfingers 7.12502
rthumb 10.2252 -259.203
lclavicle 3.65764e-014 -1.90833e-014
lhumerus 15.6039 0.988853 76.9084
lradius 67.9108
lwrist 83.6585
lhand -43.4248 -11.9366
lfingers 7.12502
lthumb -16.2674 17.401
rfemur -3.61331 15.4784 19.0296
rtibia -29.926
rfoot 13.7465 -12.6075
rtoes 1.77768
lfemur 7.24068 19.0806 -10.6258
ltibia -26.5354
lfoot 5.16129 25.2199
ltoes -17.3488
252
root -1.88074 18.0468 3.3765 17.692 -29.8479 -4.08103
lowerback 28.2153 -2.22331 -2.39363
upperback 6.82251 -3.99408 -3.16751
thorax -7.99529 -1.9353 -0.779403
lowerneck -15.1212 9.47282 12.0301
upperneck 20.2058 12.3085 -9.78628
head 10.3356 5.54153 -3.67958
rclavicle 1.43125e-013 -7.63333e-014
rhumerus -38.0242 41.0907 -91.4965
rradius 101.397
rwrist -19.8411
rhand -16.1645 -71.1433
rfingers 7.12502
rthumb 10.0415 -259.116
lclavicle 1.43125e-013 -7.63333e-014
lhumerus 14.0871 -0.672478 76.4651
lradius 69.6931
lwrist 84.4964
lhand -43.7287 -12.7639
lfingers 7.12502
lthumb -16.56 16.5495
rfemur -3.41938 15.6096 18.854
rtibia -29.795
rfoot 13.467 -12.7738
rtoes 1.65952
lfemur 7.38615 18.9153 -10.7174
ltibia -26.4594
lfoot 5.26324 25.183
ltoes -17.5907
253
root -1.8748 18.0606 3.41029 17.2916 -29.675 -3.92413
lowerback 28.1051 -2.15541 -2.22048
upperback 6.76464 -3.85426 -3.14727
thorax -8.01553 -1.87113 -0.905962
lowerneck -15.2477 9.3856 11.9604
upperneck 20.9261 12.1994 -9.6054
head 10.5885 5.49022 -3.62371
rclavicle -6.36111e-015 -1.59028e-015
rhumerus -39.4353 41.843 -90.4165
rradius 102.678
rwrist -21.0322
rhand -16.3929 -71.455
rfingers 7.12502
rthumb 9.82114 -258.794
lclavicle -6.36111e-015 -1.59028e-015
lhumerus 12.0216 -2.2109 76.6983
lradius 71.6129
lwrist 85.2216
lhand -44.3693 -13.4218
lfingers 7.12502
lthumb -17.1767 15.839
rfemur -3.04304 15.7977 18.6673
rtibia -29.5919
rfoot 13.0372 -12.9581
rtoes 1.86153
lfemur 7.67353 18.6249 -10.7642
ltibia -26.2034
lfoot 5.08808 25.1875
ltoes -17.3801
254
root -1.86788 18.0774 3.44916 16.8217 -29.4205 -3.72114
lowerback 28.0158 -2.09897 -2.13175
upperback 6.66595 -3.74579 -3.05412
thorax -8.08071 -1.81862 -0.89111
lowerneck -14.8822 9.31589 12.0495
upperneck 21.1362 12.2027 -9.87972
head 10.6223 5.47773 -3.7519
rclavicle 3.02153e-014 -1.43125e-014
rhumerus -42.2966 41.7247 -91.2305
rradius 103.348
rwrist -20.0946
rhand -16.6398 -71.145
rfingers 7.12502
rthumb 9.58287 -259.093
lclavicle 3.02153e-014 -1.43125e-014
lhumerus 9.55005 -3.47329 77.4707
lradius 73.4352
lwrist 85.9161
lhand -45.0291 -14.0258
lfingers 7.12502
lthumb -17.8117 15.1785
rfemur -2.61257 15.9937 18.4371
rtibia -29.3548
rfoot 12.4972 -13.2472
rtoes 2.19809
lfemur 7.94828 18.1729 -10.8261
ltibia -25.8184
lfoot 4.68868 25.2519
ltoes -16.9498
255
root -1.85772 18.0935 3.48908 16.3374 -29.0265 -3.47441
lowerback 27.8628 -2.11039 -2.00047
upperback 6.59127 -3.70753 -2.95918
thorax -8.09045 -1.80053 -0.877363
lowerneck -14.5673 9.29569 12.2058
upperneck 21.4326 12.2595 -10.1479
head 10.7085 5.49286 -3.87928
rclavicle 6.36111e-014 -3.18055e-014
rhumerus -45.0429 41.6696 -91.608
rradius 103.997
rwrist -19.4102
rhand -16.7542 -70.6073
rfingers 7.12502
rthumb 9.47248 -259.626
lclavicle 6.36111e-014 -3.18055e-014
lhumerus 6.81693 -4.42205 78.6789
lradius 75.2018
lwrist 86.3807
lhand -45.6626 -14.3306
lfingers 7.12502
lthumb -18.4212 14.8172
rfemur -2.16775 16.1317 18.1807
rtibia -29.1191
rfoot 11.9314 -13.6363
rtoes 2.57311
lfemur 8.13225 17.603 -10.9289
ltibia -25.3645
lfoot 4.28573 25.2917
ltoes -16.4449
256
root -1.84583 18.108 3.53129 15.7912 -28.5974 -3.20308
lowerback 27.6028 -2.1648 -1.82625
upperback 6.6168 -3.71222 -2.91726
thorax -7.94129 -1.80687 -0.938
lowerneck -14.785 9.3481 12.0164
upperneck 22.1777 12.3697 -9.96411
head 11.0117 5.52782 -3.76455
rclavicle 2.06736e-014 -1.43125e-014
rhumerus -47.8757 41.8225 -92.1416
rradius 104.789
rwrist -19.8556
rhand -17.4707 -70.235
rfingers 7.12502
rthumb 8.78114 -259.968
lclavicle 2.06736e-014 -1.43125e-014
lhumerus 3.8825 -5.10476 80.1194
lradius 77.0122
lwrist 87.142
lhand -46.0096 -15.4482
lfingers 7.12502
lthumb -18.7549 13.6676
rfemur -1.63011 16.1839 17.9444
rtibia -28.9026
rfoot 11.3956 -13.9998
rtoes 3.03317
lfemur 8.3578 17.0672 -11.0559
ltibia -24.9063
lfoot 3.96629 25.1842
ltoes -16.323
